<svg width="147" height="31" viewBox="0 0 147 31" fill="none" xmlns="http://www.w3.org/2000/svg">
<path d="M7.67 24.442C6.66133 24.442 5.715 24.3683 4.831 24.221C3.95833 24.0737 3.165 23.8923 2.451 23.677C1.74833 23.4503 1.142 23.2237 0.632 22.997L0.241 18.781C1.125 19.2457 2.17333 19.665 3.386 20.039C4.59867 20.4017 5.89067 20.583 7.262 20.583C8.71267 20.583 9.761 20.3733 10.407 19.954C11.053 19.5347 11.376 18.8887 11.376 18.016V17.829C11.376 17.2623 11.2343 16.7977 10.951 16.435C10.679 16.061 10.22 15.7323 9.574 15.449C8.928 15.1657 8.04967 14.8767 6.939 14.582C5.375 14.1513 4.08867 13.664 3.08 13.12C2.08267 12.5647 1.346 11.879 0.87 11.063C0.394 10.2357 0.156 9.19867 0.156 7.952V7.748C0.156 5.844 0.796333 4.382 2.077 3.362C3.369 2.342 5.273 1.832 7.789 1.832C9.353 1.832 10.696 1.97367 11.818 2.257C12.94 2.54033 13.8807 2.869 14.64 3.243L15.031 7.17C14.181 6.71667 13.2063 6.34267 12.107 6.048C11.019 5.742 9.829 5.589 8.537 5.589C7.57367 5.589 6.80867 5.67967 6.242 5.861C5.68667 6.04233 5.28433 6.30867 5.035 6.66C4.797 7.01133 4.678 7.43633 4.678 7.935V7.986C4.678 8.496 4.80267 8.938 5.052 9.312C5.31267 9.686 5.77167 10.0317 6.429 10.349C7.08633 10.655 8.02133 10.9723 9.234 11.301C10.7753 11.7317 12.0333 12.1963 13.008 12.695C13.994 13.1937 14.725 13.8397 15.201 14.633C15.677 15.4263 15.915 16.4747 15.915 17.778V18.084C15.915 20.1807 15.2293 21.7673 13.858 22.844C12.498 23.9093 10.4353 24.442 7.67 24.442ZM18.7269 24V7.323H23.0789V24H18.7269ZM20.9029 5.351C20.0756 5.351 19.4636 5.15833 19.0669 4.773C18.6816 4.37633 18.4889 3.83233 18.4889 3.141V3.056C18.4889 2.36466 18.6816 1.82067 19.0669 1.424C19.4636 1.02733 20.0756 0.828999 20.9029 0.828999C21.7189 0.828999 22.3252 1.02733 22.7219 1.424C23.1186 1.82067 23.3169 2.36466 23.3169 3.056V3.141C23.3169 3.84367 23.1186 4.38767 22.7219 4.773C22.3252 5.15833 21.7189 5.351 20.9029 5.351ZM37.4171 24V13.987C37.4171 13.2843 37.3207 12.678 37.1281 12.168C36.9467 11.658 36.6407 11.2613 36.2101 10.978C35.7794 10.6947 35.1901 10.553 34.4421 10.553C33.7847 10.553 33.2067 10.672 32.7081 10.91C32.2207 11.148 31.8184 11.471 31.5011 11.879C31.1951 12.2757 30.9627 12.729 30.8041 13.239L30.1241 10.859H30.9401C31.1214 10.1223 31.4217 9.45933 31.8411 8.87C32.2717 8.28067 32.8497 7.816 33.5751 7.476C34.3117 7.12467 35.2297 6.949 36.3291 6.949C37.6097 6.949 38.6467 7.19267 39.4401 7.68C40.2334 8.156 40.8171 8.87 41.1911 9.822C41.5764 10.774 41.7691 11.9527 41.7691 13.358V24H37.4171ZM26.5541 24V7.323H30.9061L30.7361 11.386L30.9061 11.743V24H26.5541ZM52.1455 18.883C49.6181 18.883 47.7028 18.3843 46.3995 17.387C45.0961 16.3783 44.4445 14.9673 44.4445 13.154V12.899C44.4445 11.6977 44.7051 10.6777 45.2265 9.839C45.7478 8.989 46.5638 8.326 47.6745 7.85C48.7851 7.374 50.2245 7.102 51.9925 7.034L60.7815 6.677V9.873L56.2595 9.703V9.89C56.9735 10.0373 57.5628 10.2753 58.0275 10.604C58.5035 10.9213 58.8605 11.335 59.0985 11.845C59.3365 12.3437 59.4555 12.95 59.4555 13.664V13.817C59.4555 15.4603 58.8491 16.7183 57.6365 17.591C56.4238 18.4523 54.5935 18.883 52.1455 18.883ZM51.9415 27.179H52.4175C53.3015 27.179 54.0325 27.1167 54.6105 26.992C55.1885 26.8787 55.6191 26.6973 55.9025 26.448C56.1971 26.21 56.3445 25.8983 56.3445 25.513V25.462C56.3445 24.986 56.1575 24.6347 55.7835 24.408C55.4208 24.1927 54.8315 24.0453 54.0155 23.966L49.1365 23.49L50.1395 23.439C49.7201 23.5183 49.3461 23.6373 49.0175 23.796C48.7001 23.9433 48.4508 24.1417 48.2695 24.391C48.0881 24.6403 47.9975 24.9463 47.9975 25.309V25.343C47.9975 25.7623 48.1448 26.108 48.4395 26.38C48.7341 26.6633 49.1761 26.8673 49.7655 26.992C50.3548 27.1167 51.0801 27.179 51.9415 27.179ZM51.7035 30.46C50.0941 30.46 48.7171 30.324 47.5725 30.052C46.4278 29.7913 45.5495 29.372 44.9375 28.794C44.3368 28.216 44.0365 27.451 44.0365 26.499V26.431C44.0365 25.785 44.1781 25.241 44.4615 24.799C44.7448 24.357 45.1471 24.0057 45.6685 23.745C46.1898 23.4843 46.7905 23.32 47.4705 23.252V23.082C46.6091 22.912 45.9575 22.6343 45.5155 22.249C45.0848 21.8523 44.8695 21.314 44.8695 20.634V20.617C44.8695 20.141 44.9771 19.7387 45.1925 19.41C45.4078 19.0813 45.7251 18.8207 46.1445 18.628C46.5751 18.4353 47.1021 18.322 47.7255 18.288V17.795L51.4145 18.713L50.2245 18.679C49.7031 18.6903 49.3405 18.764 49.1365 18.9C48.9325 19.0247 48.8305 19.206 48.8305 19.444V19.461C48.8305 19.7557 48.9891 19.971 49.3065 20.107C49.6238 20.2317 50.1508 20.3393 50.8875 20.43L54.8825 20.872C56.7525 21.0873 58.1295 21.5463 59.0135 22.249C59.9088 22.9517 60.3565 24.034 60.3565 25.496V25.581C60.3565 26.703 60.0391 27.621 59.4045 28.335C58.7698 29.0603 57.8518 29.593 56.6505 29.933C55.4605 30.2843 54.0155 30.46 52.3155 30.46H51.7035ZM52.0265 15.857C52.7858 15.857 53.4148 15.7493 53.9135 15.534C54.4235 15.3187 54.8031 15.0013 55.0525 14.582C55.3131 14.1627 55.4435 13.6527 55.4435 13.052V12.865C55.4435 12.2643 55.3188 11.76 55.0695 11.352C54.8201 10.9327 54.4461 10.621 53.9475 10.417C53.4488 10.2017 52.8198 10.094 52.0605 10.094H52.0095C51.2048 10.094 50.5475 10.2073 50.0375 10.434C49.5275 10.6493 49.1535 10.9667 48.9155 11.386C48.6775 11.794 48.5585 12.287 48.5585 12.865V13.052C48.5585 13.6527 48.6831 14.1627 48.9325 14.582C49.1931 15.0013 49.5785 15.3187 50.0885 15.534C50.6098 15.7493 51.2558 15.857 52.0265 15.857ZM62.6307 24V1.526H66.9997V24H62.6307ZM78.3281 24.408C75.4721 24.408 73.3471 23.7507 71.9531 22.436C70.5591 21.1213 69.8621 19.2173 69.8621 16.724V14.548C69.8621 12.0773 70.5138 10.179 71.8171 8.853C73.1204 7.527 75.0131 6.864 77.4951 6.864C79.1724 6.864 80.5721 7.15867 81.6941 7.748C82.8161 8.33733 83.6548 9.176 84.2101 10.264C84.7768 11.3407 85.0601 12.6327 85.0601 14.14V14.735C85.0601 15.143 85.0374 15.5623 84.9921 15.993C84.9581 16.4123 84.9071 16.809 84.8391 17.183H80.8951C80.9291 16.5597 80.9461 15.9703 80.9461 15.415C80.9574 14.8483 80.9631 14.3383 80.9631 13.885C80.9631 13.103 80.8384 12.44 80.5891 11.896C80.3398 11.3407 79.9601 10.9213 79.4501 10.638C78.9401 10.3547 78.2884 10.213 77.4951 10.213C76.3278 10.213 75.4664 10.536 74.9111 11.182C74.3558 11.828 74.0781 12.746 74.0781 13.936V15.483L74.0951 15.976V17.285C74.0951 17.8063 74.1744 18.288 74.3331 18.73C74.5031 19.172 74.7808 19.5573 75.1661 19.886C75.5514 20.2033 76.0614 20.4527 76.6961 20.634C77.3421 20.8153 78.1468 20.906 79.1101 20.906C80.1528 20.906 81.1444 20.7927 82.0851 20.566C83.0371 20.328 83.9381 20.0107 84.7881 19.614L84.4141 23.048C83.6548 23.4673 82.7594 23.796 81.7281 24.034C80.7081 24.2833 79.5748 24.408 78.3281 24.408ZM72.1741 17.183V14.293H83.9551V17.183H72.1741ZM87.816 24V1.526H92.185V24H87.816ZM105.332 24L105.485 19.92L105.366 19.546V14.327L105.349 13.579C105.349 12.491 105.049 11.692 104.448 11.182C103.859 10.672 102.89 10.417 101.541 10.417C100.397 10.417 99.32 10.57 98.3113 10.876C97.314 11.1707 96.3903 11.5163 95.5403 11.913L95.9143 8.445C96.413 8.18433 96.9797 7.94067 97.6143 7.714C98.2603 7.476 98.98 7.28333 99.7733 7.136C100.567 6.98867 101.422 6.915 102.34 6.915C103.7 6.915 104.851 7.07933 105.791 7.408C106.732 7.72533 107.48 8.18433 108.035 8.785C108.602 9.38567 109.01 10.1053 109.259 10.944C109.509 11.7713 109.633 12.6893 109.633 13.698V24H105.332ZM99.8753 24.391C98.2207 24.391 96.957 23.9773 96.0843 23.15C95.223 22.3227 94.7923 21.144 94.7923 19.614V19.138C94.7923 17.5173 95.291 16.3217 96.2883 15.551C97.2857 14.769 98.8667 14.2307 101.031 13.936L105.757 13.29L106.012 16.095L101.66 16.724C100.708 16.8487 100.028 17.0753 99.6203 17.404C99.2237 17.7327 99.0253 18.2143 99.0253 18.849V19.019C99.0253 19.6423 99.218 20.1297 99.6033 20.481C100 20.821 100.618 20.991 101.456 20.991C102.204 20.991 102.845 20.872 103.377 20.634C103.91 20.396 104.346 20.0843 104.686 19.699C105.038 19.3023 105.287 18.8603 105.434 18.373L106.046 20.532H105.298C105.117 21.246 104.822 21.8977 104.414 22.487C104.018 23.065 103.457 23.5297 102.731 23.881C102.006 24.221 101.054 24.391 99.8753 24.391ZM123.731 24V13.987C123.731 13.2843 123.634 12.678 123.442 12.168C123.26 11.658 122.954 11.2613 122.524 10.978C122.093 10.6947 121.504 10.553 120.756 10.553C120.098 10.553 119.52 10.672 119.022 10.91C118.534 11.148 118.132 11.471 117.815 11.879C117.509 12.2757 117.276 12.729 117.118 13.239L116.438 10.859H117.254C117.435 10.1223 117.735 9.45933 118.155 8.87C118.585 8.28067 119.163 7.816 119.889 7.476C120.625 7.12467 121.543 6.949 122.643 6.949C123.923 6.949 124.96 7.19267 125.754 7.68C126.547 8.156 127.131 8.87 127.505 9.822C127.89 10.774 128.083 11.9527 128.083 13.358V24H123.731ZM112.868 24V7.323H117.22L117.05 11.386L117.22 11.743V24H112.868ZM136.793 24.391C134.832 24.391 133.342 23.7563 132.322 22.487C131.302 21.2177 130.792 19.3477 130.792 16.877V14.582C130.792 12.0773 131.308 10.179 132.339 8.887C133.37 7.595 134.906 6.949 136.946 6.949C137.943 6.949 138.782 7.10767 139.462 7.425C140.153 7.74233 140.709 8.19567 141.128 8.785C141.559 9.37433 141.859 10.0657 142.029 10.859H143.304L142.199 14.089C142.176 13.307 142.012 12.6497 141.706 12.117C141.411 11.573 140.998 11.1593 140.465 10.876C139.932 10.5927 139.303 10.451 138.578 10.451C137.479 10.451 136.634 10.7683 136.045 11.403C135.467 12.0377 135.178 12.984 135.178 14.242V16.996C135.178 18.2427 135.467 19.1833 136.045 19.818C136.634 20.4527 137.49 20.77 138.612 20.77C139.247 20.77 139.813 20.651 140.312 20.413C140.811 20.175 141.224 19.852 141.553 19.444C141.893 19.0247 142.137 18.5543 142.284 18.033L143.321 20.464H142.097C141.916 21.1893 141.621 21.8523 141.213 22.453C140.805 23.0423 140.244 23.5127 139.53 23.864C138.816 24.2153 137.904 24.391 136.793 24.391ZM142.131 24L142.284 19.92L142.199 18.951V12.134L142.216 11.437L142.131 6.66V1.526H146.483V24H142.131Z" fill="#252927"/>
</svg>
